<svg width="595" height="16" viewBox="0 0 595 16" fill="none" xmlns="http://www.w3.org/2000/svg">
<path d="M6.591 3.4249V4.5429H4.264C4.09933 4.5429 3.98667 4.5299 3.926 4.5039L3.913 4.5299C3.939 4.59057 3.952 4.69457 3.952 4.8419V12.5249H2.782V4.8419C2.782 4.69457 2.795 4.59057 2.821 4.5299L2.795 4.5039C2.73433 4.5299 2.626 4.5429 2.47 4.5429H0.13V3.4249H6.591Z" fill="#2B2B2A"/>
<g clip-path="url(#clip0_392_13973)">
<path d="M15.4139 9.29114C15.3828 9.27143 15.3572 9.24417 15.3394 9.21191C15.3216 9.17964 15.3123 9.14341 15.3122 9.10657V3.21344C15.3122 2.86534 15.1739 2.5315 14.9278 2.28536C14.6817 2.03922 14.3478 1.90094 13.9997 1.90094C13.6516 1.90094 13.3178 2.03922 13.0716 2.28536C12.8255 2.5315 12.6872 2.86534 12.6872 3.21344V9.10657C12.6872 9.14334 12.6778 9.1795 12.6601 9.21171C12.6424 9.24392 12.6168 9.27115 12.5858 9.29086C12.197 9.54411 11.8811 9.89442 11.6691 10.3072C11.4572 10.7199 11.3567 11.1808 11.3775 11.6443C11.4087 12.3293 11.7068 12.9749 12.2079 13.4429C12.7091 13.911 13.3734 14.1644 14.0589 14.1489C14.7445 14.1334 15.3967 13.8503 15.8762 13.3602C16.3557 12.87 16.6244 12.2116 16.6247 11.5259C16.6249 11.0821 16.5143 10.6452 16.3028 10.2549C16.0914 9.86468 15.7859 9.53339 15.4139 9.29114V9.29114Z" stroke="black" stroke-width="1.00189" stroke-miterlimit="10" stroke-linecap="round"/>
<path d="M13.9997 4.08881V11.5263" stroke="black" stroke-width="1.00189" stroke-miterlimit="10" stroke-linecap="round"/>
<path d="M14.0005 12.8394C14.7259 12.8394 15.3139 12.2513 15.3139 11.5259C15.3139 10.8005 14.7259 10.2125 14.0005 10.2125C13.2751 10.2125 12.687 10.8005 12.687 11.5259C12.687 12.2513 13.2751 12.8394 14.0005 12.8394Z" fill="black"/>
</g>
<path d="M35.513 3.4249V4.1139H32.991C32.8437 4.1139 32.731 4.1009 32.653 4.0749L32.64 4.0879C32.666 4.1659 32.679 4.27424 32.679 4.4129V12.5249H31.964V4.4129C31.964 4.27424 31.977 4.1659 32.003 4.0879L31.99 4.0749C31.8947 4.1009 31.782 4.1139 31.652 4.1139H29.13V3.4249H35.513ZM37.8061 6.3239C38.6814 6.3239 39.3747 6.60557 39.8861 7.1689C40.4061 7.73224 40.6661 8.49057 40.6661 9.4439V9.5999H35.9601C35.6827 9.5999 35.5007 9.57824 35.4141 9.5349L35.4011 9.5479L35.4271 9.6649C35.4357 10.4016 35.6611 10.9909 36.1031 11.4329C36.5451 11.8662 37.1301 12.0829 37.8581 12.0829C38.3087 12.0829 38.7074 11.9919 39.0541 11.8099C39.4094 11.6192 39.7517 11.3116 40.0811 10.8869L40.5491 11.3159C39.8644 12.2519 38.9631 12.7199 37.8451 12.7199C36.9004 12.7199 36.1464 12.4296 35.5831 11.8489C35.0197 11.2596 34.7381 10.4796 34.7381 9.5089C34.7381 8.53824 35.0154 7.7669 35.5701 7.1949C36.1334 6.61424 36.8787 6.3239 37.8061 6.3239ZM37.7931 6.9479C37.1171 6.9479 36.5667 7.1429 36.1421 7.5329C35.7261 7.9229 35.4877 8.45157 35.4271 9.1189L35.4401 9.1319C35.5527 9.07124 35.7304 9.0409 35.9731 9.0409H39.3661C39.6001 9.0409 39.7951 9.0669 39.9511 9.1189L39.9641 9.1059C39.9121 8.42124 39.6954 7.89257 39.3141 7.5199C38.9414 7.13857 38.4344 6.9479 37.7931 6.9479ZM45.0921 12.6289L43.6361 9.1059C43.4801 8.72457 43.3457 8.30424 43.2331 7.8449H43.1941C43.1854 8.16557 43.0987 8.59024 42.9341 9.1189L41.8421 12.5249H41.1271L43.1161 6.4019H43.2331L44.8191 10.3149C44.9924 10.7742 45.1007 11.1339 45.1441 11.3939H45.1701C45.2134 11.1339 45.3217 10.7742 45.4951 10.3149L47.0811 6.4019H47.1981L49.1871 12.5249H48.4721L47.3801 9.1189C47.2154 8.59024 47.1287 8.16557 47.1201 7.8449H47.0811C46.9684 8.30424 46.8341 8.72457 46.6781 9.1059L45.2221 12.6289H45.0921ZM55.2015 6.5189V12.5249H54.5385V7.4289C54.5385 7.29024 54.5602 7.17757 54.6035 7.0909L54.5905 7.0779C54.5212 7.11257 54.3998 7.1299 54.2265 7.1299H51.1585C50.9852 7.1299 50.8638 7.11257 50.7945 7.0779L50.7815 7.0909C50.8248 7.17757 50.8465 7.29024 50.8465 7.4289V12.5249H50.1965V6.5189H55.2015ZM59.6674 6.3239C60.5427 6.3239 61.2361 6.60557 61.7474 7.1689C62.2674 7.73224 62.5274 8.49057 62.5274 9.4439V9.5999H57.8214C57.5441 9.5999 57.3621 9.57824 57.2754 9.5349L57.2624 9.5479L57.2884 9.6649C57.2971 10.4016 57.5224 10.9909 57.9644 11.4329C58.4064 11.8662 58.9914 12.0829 59.7194 12.0829C60.1701 12.0829 60.5687 11.9919 60.9154 11.8099C61.2707 11.6192 61.6131 11.3116 61.9424 10.8869L62.4104 11.3159C61.7257 12.2519 60.8244 12.7199 59.7064 12.7199C58.7617 12.7199 58.0077 12.4296 57.4444 11.8489C56.8811 11.2596 56.5994 10.4796 56.5994 9.5089C56.5994 8.53824 56.8767 7.7669 57.4314 7.1949C57.9947 6.61424 58.7401 6.3239 59.6674 6.3239ZM59.6544 6.9479C58.9784 6.9479 58.4281 7.1429 58.0034 7.5329C57.5874 7.9229 57.3491 8.45157 57.2884 9.1189L57.3014 9.1319C57.4141 9.07124 57.5917 9.0409 57.8344 9.0409H61.2274C61.4614 9.0409 61.6564 9.0669 61.8124 9.1189L61.8254 9.1059C61.7734 8.42124 61.5567 7.89257 61.1754 7.5199C60.8027 7.13857 60.2957 6.9479 59.6544 6.9479ZM67.2862 6.3239C68.1789 6.3239 68.9026 6.6229 69.4572 7.2209C70.0206 7.81024 70.3022 8.57724 70.3022 9.5219C70.3022 10.4666 70.0206 11.2379 69.4572 11.8359C68.9026 12.4252 68.1789 12.7199 67.2862 12.7199C65.9776 12.7199 65.0806 12.1176 64.5952 10.9129L64.5432 10.9259C64.6299 11.2726 64.6732 11.6972 64.6732 12.1999V15.1249H64.0232V6.5189H64.6602C64.6602 7.29024 64.6299 7.84057 64.5692 8.1699L64.6082 8.1829C64.8336 7.59357 65.1759 7.13857 65.6352 6.8179C66.1032 6.48857 66.6536 6.3239 67.2862 6.3239ZM67.1952 6.9869C66.4326 6.9869 65.8129 7.22524 65.3362 7.7019C64.8596 8.1699 64.6212 8.77657 64.6212 9.5219C64.6212 10.2759 64.8639 10.8869 65.3492 11.3549C65.8346 11.8229 66.4629 12.0569 67.2342 12.0569C67.9449 12.0569 68.5169 11.8272 68.9502 11.3679C69.3836 10.9086 69.6002 10.2976 69.6002 9.5349C69.6002 8.76357 69.3792 8.14824 68.9372 7.6889C68.5039 7.2209 67.9232 6.9869 67.1952 6.9869ZM74.1077 6.3239C74.931 6.3239 75.5377 6.51457 75.9277 6.8959C76.3177 7.27724 76.5127 7.86657 76.5127 8.6639V12.5249H75.8627C75.8627 12.1869 75.8887 11.7926 75.9407 11.3419L75.9147 11.3289C75.724 11.7622 75.4207 12.1046 75.0047 12.3559C74.5887 12.5986 74.1163 12.7199 73.5877 12.7199C72.8857 12.7199 72.318 12.5249 71.8847 12.1349C71.46 11.7362 71.2477 11.2162 71.2477 10.5749C71.2477 9.9249 71.46 9.40924 71.8847 9.0279C72.318 8.6379 72.8943 8.4429 73.6137 8.4429C74.1423 8.4429 74.6103 8.56424 75.0177 8.8069C75.4337 9.0409 75.7283 9.36157 75.9017 9.7689L75.9407 9.7429C75.8973 9.59557 75.8757 9.2489 75.8757 8.7029C75.867 7.55024 75.2733 6.9739 74.0947 6.9739C73.5053 6.9739 72.8337 7.09524 72.0797 7.3379L71.8847 6.6879C72.7167 6.44524 73.4577 6.3239 74.1077 6.3239ZM73.7307 9.0539C73.1933 9.0539 72.7643 9.1969 72.4437 9.4829C72.123 9.76024 71.9627 10.1329 71.9627 10.6009C71.9627 11.0516 72.123 11.4156 72.4437 11.6929C72.7643 11.9702 73.1933 12.1089 73.7307 12.1089C74.294 12.1089 74.7707 11.9616 75.1607 11.6669C75.5507 11.3722 75.7457 11.0126 75.7457 10.5879C75.7457 10.1546 75.5507 9.79057 75.1607 9.4959C74.7707 9.20124 74.294 9.0539 73.7307 9.0539ZM77.066 6.5189H82.76V7.1299H80.55C80.3766 7.1299 80.2553 7.11257 80.186 7.0779L80.173 7.0909C80.2163 7.17757 80.238 7.29024 80.238 7.4289V12.5249H79.588V7.4289C79.588 7.29024 79.6096 7.17757 79.653 7.0909L79.64 7.0779C79.5706 7.11257 79.4493 7.1299 79.276 7.1299H77.066V6.5189ZM88.7301 6.5189L84.9471 15.1249H84.2581L85.5841 12.0829L82.9581 6.5189H83.7251L85.4671 10.3409C85.7185 10.8782 85.8615 11.3029 85.8961 11.6149H85.9481C85.9828 11.3029 86.1171 10.8826 86.3511 10.3539L88.0151 6.5189H88.7301ZM93.0196 6.3239C93.9123 6.3239 94.636 6.6229 95.1906 7.2209C95.754 7.81024 96.0356 8.57724 96.0356 9.5219C96.0356 10.4666 95.754 11.2379 95.1906 11.8359C94.636 12.4252 93.9123 12.7199 93.0196 12.7199C91.711 12.7199 90.814 12.1176 90.3286 10.9129L90.2766 10.9259C90.3633 11.2726 90.4066 11.6972 90.4066 12.1999V15.1249H89.7566V6.5189H90.3936C90.3936 7.29024 90.3633 7.84057 90.3026 8.1699L90.3416 8.1829C90.567 7.59357 90.9093 7.13857 91.3686 6.8179C91.8366 6.48857 92.387 6.3239 93.0196 6.3239ZM92.9286 6.9869C92.166 6.9869 91.5463 7.22524 91.0696 7.7019C90.593 8.1699 90.3546 8.77657 90.3546 9.5219C90.3546 10.2759 90.5973 10.8869 91.0826 11.3549C91.568 11.8229 92.1963 12.0569 92.9676 12.0569C93.6783 12.0569 94.2503 11.8272 94.6836 11.3679C95.117 10.9086 95.3336 10.2976 95.3336 9.5349C95.3336 8.76357 95.1126 8.14824 94.6706 7.6889C94.2373 7.2209 93.6566 6.9869 92.9286 6.9869ZM99.8411 6.3239C100.664 6.3239 101.271 6.51457 101.661 6.8959C102.051 7.27724 102.246 7.86657 102.246 8.6639V12.5249H101.596C101.596 12.1869 101.622 11.7926 101.674 11.3419L101.648 11.3289C101.457 11.7622 101.154 12.1046 100.738 12.3559C100.322 12.5986 99.8497 12.7199 99.3211 12.7199C98.6191 12.7199 98.0514 12.5249 97.6181 12.1349C97.1934 11.7362 96.9811 11.2162 96.9811 10.5749C96.9811 9.9249 97.1934 9.40924 97.6181 9.0279C98.0514 8.6379 98.6277 8.4429 99.3471 8.4429C99.8757 8.4429 100.344 8.56424 100.751 8.8069C101.167 9.0409 101.462 9.36157 101.635 9.7689L101.674 9.7429C101.631 9.59557 101.609 9.2489 101.609 8.7029C101.6 7.55024 101.007 6.9739 99.8281 6.9739C99.2387 6.9739 98.5671 7.09524 97.8131 7.3379L97.6181 6.6879C98.4501 6.44524 99.1911 6.3239 99.8411 6.3239ZM99.4641 9.0539C98.9267 9.0539 98.4977 9.1969 98.1771 9.4829C97.8564 9.76024 97.6961 10.1329 97.6961 10.6009C97.6961 11.0516 97.8564 11.4156 98.1771 11.6929C98.4977 11.9702 98.9267 12.1089 99.4641 12.1089C100.027 12.1089 100.504 11.9616 100.894 11.6669C101.284 11.3722 101.479 11.0126 101.479 10.5879C101.479 10.1546 101.284 9.79057 100.894 9.4959C100.504 9.20124 100.027 9.0539 99.4641 9.0539Z" fill="#2B2B2A"/>
<path d="M132.151 3.4249L128.16 12.6549H128.03L124.026 3.4249H125.404L127.614 8.8719C127.805 9.34857 127.956 9.8989 128.069 10.5229H128.121C128.208 9.95957 128.359 9.40924 128.576 8.8719L130.786 3.4249H132.151Z" fill="#2B2B2A"/>
<path d="M140.695 6.28168C140.268 6.76219 140.032 7.38261 140.032 8.02536C140.032 8.66812 140.268 9.28854 140.695 9.76905" stroke="black" stroke-width="1.00189" stroke-linecap="round" stroke-linejoin="round"/>
<path d="M143.335 9.76905C143.762 9.28854 143.998 8.66812 143.998 8.02536C143.998 7.38261 143.762 6.76219 143.335 6.28168" stroke="black" stroke-width="1.00189" stroke-linecap="round" stroke-linejoin="round"/>
<path d="M139.301 4.88806C138.506 5.73896 138.063 6.86021 138.063 8.02494C138.063 9.18967 138.506 10.3109 139.301 11.1618" stroke="black" stroke-width="1.00189" stroke-linecap="round" stroke-linejoin="round"/>
<path d="M144.728 11.1618C145.523 10.3109 145.966 9.18967 145.966 8.02494C145.966 6.86021 145.523 5.73896 144.728 4.88806" stroke="black" stroke-width="1.00189" stroke-linecap="round" stroke-linejoin="round"/>
<path d="M146.267 12.3994C147.341 11.1953 147.935 9.638 147.935 8.02435C147.935 6.4107 147.341 4.85346 146.267 3.64935" stroke="black" stroke-width="1.00189" stroke-linecap="round" stroke-linejoin="round"/>
<path d="M137.762 3.64935C136.688 4.85346 136.095 6.4107 136.095 8.02435C136.095 9.638 136.688 11.1953 137.762 12.3994" stroke="black" stroke-width="1.00189" stroke-linecap="round" stroke-linejoin="round"/>
<path d="M158.079 12.5249V3.4249H161.238C162.018 3.4249 162.633 3.62424 163.084 4.0229C163.535 4.4129 163.76 4.95024 163.76 5.6349C163.76 6.51024 163.379 7.12557 162.616 7.4809C162.356 7.57624 162.083 7.64124 161.797 7.6759V7.7279C162.074 7.7279 162.352 7.75824 162.629 7.8189C163.184 7.95757 163.608 8.21757 163.903 8.5989C164.198 8.97157 164.345 9.44824 164.345 10.0289C164.345 10.8089 164.081 11.4199 163.552 11.8619C163.032 12.3039 162.304 12.5249 161.368 12.5249H158.079ZM158.768 7.4549C158.811 7.43757 158.924 7.4289 159.106 7.4289H160.861C161.546 7.4289 162.074 7.27724 162.447 6.9739C162.82 6.6619 163.006 6.22857 163.006 5.6739C163.006 5.16257 162.85 4.77257 162.538 4.5039C162.226 4.23524 161.775 4.1009 161.186 4.1009H159.106C158.924 4.1009 158.811 4.09224 158.768 4.0749L158.755 4.0879C158.781 4.1659 158.794 4.2699 158.794 4.3999V7.1299C158.794 7.2599 158.781 7.3639 158.755 7.4419L158.768 7.4549ZM158.768 11.8749C158.811 11.8576 158.924 11.8489 159.106 11.8489H161.316C162.824 11.8489 163.578 11.2336 163.578 10.0029C163.578 8.72024 162.763 8.0789 161.134 8.0789H159.106C158.924 8.0789 158.811 8.0659 158.768 8.0399L158.755 8.0659C158.781 8.12657 158.794 8.23057 158.794 8.3779V11.5499C158.794 11.6799 158.781 11.7839 158.755 11.8619L158.768 11.8749ZM166.023 12.6419V6.5189H166.673V9.8339C166.673 10.4319 166.652 10.9476 166.608 11.3809L166.647 11.3939C166.777 11.1252 167.003 10.8089 167.323 10.4449L171.002 6.4019H171.145V12.5249H170.495V9.2099C170.495 8.6119 170.517 8.09624 170.56 7.6629L170.521 7.6499C170.391 7.91857 170.166 8.2349 169.845 8.5989L166.166 12.6419H166.023ZM175.956 12.7199C174.942 12.7199 174.131 12.3862 173.525 11.7189C172.927 11.0516 172.628 10.0549 172.628 8.7289C172.628 6.81357 173.204 5.54824 174.357 4.9329C174.591 4.81157 174.872 4.6989 175.202 4.5949C175.54 4.4909 175.93 4.3869 176.372 4.2829C176.822 4.1789 177.061 4.12257 177.087 4.1139C177.563 3.96657 177.823 3.71524 177.867 3.3599H178.517C178.517 4.0359 178.122 4.47357 177.334 4.6729C177.316 4.68157 177.074 4.7379 176.606 4.8419C176.146 4.93724 175.765 5.03257 175.462 5.1279C175.158 5.21457 174.903 5.31424 174.695 5.4269C173.741 5.92957 173.23 7.0909 173.161 8.9109H173.213C173.308 8.09624 173.624 7.4809 174.162 7.0649C174.708 6.64024 175.375 6.4279 176.164 6.4279C177.074 6.41924 177.802 6.69657 178.348 7.2599C178.902 7.82324 179.18 8.5729 179.18 9.5089C179.18 10.4622 178.885 11.2379 178.296 11.8359C177.706 12.4252 176.926 12.7199 175.956 12.7199ZM175.982 12.0699C176.718 12.0699 177.321 11.8402 177.789 11.3809C178.257 10.9216 178.491 10.3106 178.491 9.5479C178.491 8.7679 178.252 8.1569 177.776 7.7149C177.299 7.2729 176.705 7.0519 175.995 7.0519C175.258 7.0519 174.638 7.27724 174.136 7.7279C173.642 8.17857 173.395 8.7809 173.395 9.5349C173.395 10.3062 173.637 10.9216 174.123 11.3809C174.617 11.8402 175.236 12.0699 175.982 12.0699ZM183.937 6.3239C184.829 6.3239 185.553 6.6229 186.108 7.2209C186.671 7.81024 186.953 8.57724 186.953 9.5219C186.953 10.4666 186.671 11.2379 186.108 11.8359C185.553 12.4252 184.829 12.7199 183.937 12.7199C182.628 12.7199 181.731 12.1176 181.246 10.9129L181.194 10.9259C181.28 11.2726 181.324 11.6972 181.324 12.1999V15.1249H180.674V6.5189H181.311C181.311 7.29024 181.28 7.84057 181.22 8.1699L181.259 8.1829C181.484 7.59357 181.826 7.13857 182.286 6.8179C182.754 6.48857 183.304 6.3239 183.937 6.3239ZM183.846 6.9869C183.083 6.9869 182.463 7.22524 181.987 7.7019C181.51 8.1699 181.272 8.77657 181.272 9.5219C181.272 10.2759 181.514 10.8869 182 11.3549C182.485 11.8229 183.113 12.0569 183.885 12.0569C184.595 12.0569 185.167 11.8272 185.601 11.3679C186.034 10.9086 186.251 10.2976 186.251 9.5349C186.251 8.76357 186.03 8.14824 185.588 7.6889C185.154 7.2209 184.574 6.9869 183.846 6.9869ZM190.758 6.3239C191.581 6.3239 192.188 6.51457 192.578 6.8959C192.968 7.27724 193.163 7.86657 193.163 8.6639V12.5249H192.513C192.513 12.1869 192.539 11.7926 192.591 11.3419L192.565 11.3289C192.374 11.7622 192.071 12.1046 191.655 12.3559C191.239 12.5986 190.767 12.7199 190.238 12.7199C189.536 12.7199 188.968 12.5249 188.535 12.1349C188.11 11.7362 187.898 11.2162 187.898 10.5749C187.898 9.9249 188.11 9.40924 188.535 9.0279C188.968 8.6379 189.545 8.4429 190.264 8.4429C190.793 8.4429 191.261 8.56424 191.668 8.8069C192.084 9.0409 192.379 9.36157 192.552 9.7689L192.591 9.7429C192.548 9.59557 192.526 9.2489 192.526 8.7029C192.517 7.55024 191.924 6.9739 190.745 6.9739C190.156 6.9739 189.484 7.09524 188.73 7.3379L188.535 6.6879C189.367 6.44524 190.108 6.3239 190.758 6.3239ZM190.381 9.0539C189.844 9.0539 189.415 9.1969 189.094 9.4829C188.773 9.76024 188.613 10.1329 188.613 10.6009C188.613 11.0516 188.773 11.4156 189.094 11.6929C189.415 11.9702 189.844 12.1089 190.381 12.1089C190.944 12.1089 191.421 11.9616 191.811 11.6669C192.201 11.3722 192.396 11.0126 192.396 10.5879C192.396 10.1546 192.201 9.79057 191.811 9.4959C191.421 9.20124 190.944 9.0539 190.381 9.0539ZM199.817 14.3449V12.8239C199.817 12.6852 199.839 12.5726 199.882 12.4859L199.869 12.4729C199.8 12.5076 199.678 12.5249 199.505 12.5249H194.994V6.5189H195.644V11.6149C195.644 11.7536 195.622 11.8662 195.579 11.9529L195.592 11.9659C195.661 11.9312 195.783 11.9139 195.956 11.9139H198.829C199.002 11.9139 199.124 11.9312 199.193 11.9659L199.206 11.9529C199.163 11.8662 199.141 11.7536 199.141 11.6149V6.5189H199.804V11.6149C199.804 11.7536 199.782 11.8662 199.739 11.9529L199.752 11.9659C199.821 11.9312 199.943 11.9139 200.116 11.9139H200.454V14.3449H199.817ZM201.811 12.6419V6.5189H202.461V9.8339C202.461 10.4319 202.44 10.9476 202.396 11.3809L202.435 11.3939C202.565 11.1252 202.791 10.8089 203.111 10.4449L206.79 6.4019H206.933V12.5249H206.283V9.2099C206.283 8.6119 206.305 8.09624 206.348 7.6629L206.309 7.6499C206.179 7.91857 205.954 8.2349 205.633 8.5989L201.954 12.6419H201.811ZM213.031 6.5189V12.5249H212.381V10.3149C212.381 10.1502 212.398 10.0332 212.433 9.9639L212.42 9.9509C212.333 9.99424 212.216 10.0159 212.069 10.0159H211.198L208.923 12.5249H208.078V12.4989L209.95 10.4579C210.158 10.2412 210.353 10.0766 210.535 9.9639L210.522 9.9379C210.426 9.98124 210.27 10.0029 210.054 10.0029C209.629 9.98557 209.261 9.82524 208.949 9.5219C208.637 9.21857 208.481 8.80257 208.481 8.2739C208.481 7.7019 208.663 7.26857 209.027 6.9739C209.391 6.67057 209.867 6.5189 210.457 6.5189H213.031ZM212.433 9.4569C212.398 9.38757 212.381 9.27057 212.381 9.1059V7.4289C212.381 7.29024 212.402 7.17757 212.446 7.0909L212.433 7.0779C212.337 7.11257 212.216 7.1299 212.069 7.1299H210.522C210.097 7.1299 209.763 7.22957 209.521 7.4289C209.287 7.62824 209.17 7.9099 209.17 8.2739C209.17 8.62924 209.278 8.9109 209.495 9.1189C209.72 9.31824 210.032 9.4179 210.431 9.4179H212.069C212.207 9.4179 212.324 9.43524 212.42 9.4699L212.433 9.4569Z" fill="#2B2B2A"/>
<path d="M236.171 3.4249V11.1079C236.171 11.2552 236.158 11.3592 236.132 11.4199L236.158 11.4459C236.219 11.4199 236.327 11.4069 236.483 11.4069H240.227V12.5249H235.001V3.4249H236.171Z" fill="#2B2B2A"/>
<path d="M251.937 9.77476C251.937 12.1911 250.416 13.7123 248 13.7123C245.583 13.7123 244.062 12.1911 244.062 9.77476C244.062 7.18175 246.885 3.6812 247.751 2.66866C247.781 2.63269 247.82 2.60381 247.863 2.58401C247.906 2.56421 247.952 2.55396 248 2.55396C248.047 2.55396 248.094 2.56421 248.137 2.58401C248.18 2.60381 248.218 2.63269 248.249 2.66866C249.114 3.6812 251.937 7.18175 251.937 9.77476Z" stroke="black" stroke-width="1.00189" stroke-miterlimit="10"/>
<path d="M250.407 9.9931C250.407 10.5156 250.2 11.0168 249.83 11.3862C249.461 11.7557 248.96 11.9633 248.437 11.9633" stroke="black" stroke-width="1.00189" stroke-linecap="round" stroke-linejoin="round"/>
<path d="M265.041 12.6029C264.781 12.6029 264.478 12.5726 264.131 12.5119V11.8359C264.452 11.8966 264.764 11.9269 265.067 11.9269C265.388 11.9269 265.678 11.8186 265.938 11.6019C266.207 11.3852 266.471 10.9432 266.731 10.2759L263.169 3.4249H264.014L266.588 8.4429C266.805 8.8589 266.935 9.1189 266.978 9.2229C267.021 9.3269 267.065 9.50024 267.108 9.7429L267.147 9.7299C267.19 9.37457 267.333 8.93257 267.576 8.4039L269.942 3.4249H270.748L267.316 10.6529C267.004 11.4156 266.662 11.9312 266.289 12.1999C265.925 12.4686 265.509 12.6029 265.041 12.6029ZM274.448 6.3239C275.341 6.3239 276.065 6.6229 276.619 7.2209C277.183 7.81024 277.464 8.57724 277.464 9.5219C277.464 10.4666 277.183 11.2379 276.619 11.8359C276.065 12.4252 275.341 12.7199 274.448 12.7199C273.14 12.7199 272.243 12.1176 271.757 10.9129L271.705 10.9259C271.792 11.2726 271.835 11.6972 271.835 12.1999V15.1249H271.185V6.5189H271.822C271.822 7.29024 271.792 7.84057 271.731 8.1699L271.77 8.1829C271.996 7.59357 272.338 7.13857 272.797 6.8179C273.265 6.48857 273.816 6.3239 274.448 6.3239ZM274.357 6.9869C273.595 6.9869 272.975 7.22524 272.498 7.7019C272.022 8.1699 271.783 8.77657 271.783 9.5219C271.783 10.2759 272.026 10.8869 272.511 11.3549C272.997 11.8229 273.625 12.0569 274.396 12.0569C275.107 12.0569 275.679 11.8272 276.112 11.3679C276.546 10.9086 276.762 10.2976 276.762 9.5349C276.762 8.76357 276.541 8.14824 276.099 7.6889C275.666 7.2209 275.085 6.9869 274.357 6.9869ZM281.75 6.3239C282.695 6.3239 283.466 6.6229 284.064 7.2209C284.671 7.8189 284.974 8.5859 284.974 9.5219C284.974 10.4492 284.671 11.2162 284.064 11.8229C283.466 12.4209 282.695 12.7199 281.75 12.7199C280.814 12.7199 280.043 12.4209 279.436 11.8229C278.829 11.2162 278.526 10.4492 278.526 9.5219C278.526 8.5859 278.829 7.8189 279.436 7.2209C280.043 6.6229 280.814 6.3239 281.75 6.3239ZM283.557 7.6889C283.089 7.21224 282.487 6.9739 281.75 6.9739C281.013 6.9739 280.407 7.21224 279.93 7.6889C279.462 8.16557 279.228 8.77657 279.228 9.5219C279.228 10.2672 279.462 10.8782 279.93 11.3549C280.407 11.8316 281.013 12.0699 281.75 12.0699C282.487 12.0699 283.089 11.8316 283.557 11.3549C284.034 10.8782 284.272 10.2672 284.272 9.5219C284.272 8.77657 284.034 8.16557 283.557 7.6889ZM290.345 9.5609C290.925 9.75157 291.216 10.1936 291.216 10.8869C291.216 11.4156 291.042 11.8229 290.696 12.1089C290.349 12.3862 289.89 12.5249 289.318 12.5249H286.458V6.5189H289.305C289.868 6.5189 290.301 6.6489 290.605 6.9089C290.917 7.1689 291.073 7.5329 291.073 8.0009C291.073 8.59024 290.834 9.0019 290.358 9.2359C290.15 9.33124 289.89 9.38757 289.578 9.4049V9.4569C289.855 9.4569 290.111 9.49157 290.345 9.5609ZM287.043 7.0909C287.086 7.1689 287.108 7.28157 287.108 7.4289V8.8589C287.108 9.03224 287.09 9.15357 287.056 9.2229L287.069 9.2359C287.147 9.19257 287.259 9.1709 287.407 9.1709H288.902C289.396 9.1709 289.76 9.07557 289.994 8.8849C290.236 8.68557 290.358 8.42124 290.358 8.0919C290.358 7.45057 289.955 7.1299 289.149 7.1299H287.42C287.246 7.1299 287.125 7.11257 287.056 7.0779L287.043 7.0909ZM289.201 11.9139C290.067 11.9139 290.501 11.5499 290.501 10.8219C290.501 10.1026 290.002 9.7429 289.006 9.7429H287.407C287.259 9.7429 287.147 9.72124 287.069 9.6779L287.056 9.6909C287.09 9.76024 287.108 9.87724 287.108 10.0419V11.6149C287.108 11.7536 287.086 11.8662 287.043 11.9529L287.056 11.9659C287.125 11.9312 287.246 11.9139 287.42 11.9139H289.201ZM295.356 6.3239C296.231 6.3239 296.925 6.60557 297.436 7.1689C297.956 7.73224 298.216 8.49057 298.216 9.4439V9.5999H293.51C293.233 9.5999 293.051 9.57824 292.964 9.5349L292.951 9.5479L292.977 9.6649C292.986 10.4016 293.211 10.9909 293.653 11.4329C294.095 11.8662 294.68 12.0829 295.408 12.0829C295.859 12.0829 296.257 11.9919 296.604 11.8099C296.959 11.6192 297.302 11.3116 297.631 10.8869L298.099 11.3159C297.414 12.2519 296.513 12.7199 295.395 12.7199C294.45 12.7199 293.696 12.4296 293.133 11.8489C292.57 11.2596 292.288 10.4796 292.288 9.5089C292.288 8.53824 292.565 7.7669 293.12 7.1949C293.683 6.61424 294.429 6.3239 295.356 6.3239ZM295.343 6.9479C294.667 6.9479 294.117 7.1429 293.692 7.5329C293.276 7.9229 293.038 8.45157 292.977 9.1189L292.99 9.1319C293.103 9.07124 293.28 9.0409 293.523 9.0409H296.916C297.15 9.0409 297.345 9.0669 297.501 9.1189L297.514 9.1059C297.462 8.42124 297.245 7.89257 296.864 7.5199C296.491 7.13857 295.984 6.9479 295.343 6.9479ZM304.21 6.5189H304.873V12.5249H304.21V9.9119C304.21 9.7559 304.231 9.63457 304.275 9.5479L304.262 9.5349C304.175 9.57824 304.058 9.5999 303.911 9.5999H300.661C300.522 9.5999 300.409 9.57824 300.323 9.5349L300.31 9.5479C300.344 9.61724 300.362 9.73857 300.362 9.9119V12.5249H299.712V6.5189H300.362V8.6769C300.362 8.85024 300.344 8.97157 300.31 9.0409L300.323 9.0539C300.409 9.01057 300.522 8.9889 300.661 8.9889H303.911C304.058 8.9889 304.175 9.01057 304.262 9.0539L304.275 9.0409C304.231 8.95424 304.21 8.8329 304.21 8.6769V6.5189ZM309.37 8.7809C309.986 8.7809 310.475 8.9499 310.839 9.2879C311.212 9.61724 311.398 10.0722 311.398 10.6529C311.398 11.2249 311.212 11.6799 310.839 12.0179C310.467 12.3559 309.977 12.5249 309.37 12.5249H306.77V6.5189H307.42V8.4819C307.42 8.64657 307.403 8.76357 307.368 8.8329L307.381 8.8459C307.459 8.80257 307.572 8.7809 307.719 8.7809H309.37ZM309.344 11.9139C309.769 11.9139 310.098 11.8012 310.332 11.5759C310.575 11.3419 310.696 11.0342 310.696 10.6529C310.696 10.2716 310.579 9.96824 310.345 9.7429C310.111 9.51757 309.778 9.4049 309.344 9.4049H307.719C307.572 9.4049 307.459 9.38324 307.381 9.3399L307.368 9.3529C307.403 9.42224 307.42 9.54357 307.42 9.7169V11.6149C307.42 11.7536 307.399 11.8662 307.355 11.9529L307.368 11.9659C307.438 11.9312 307.559 11.9139 307.732 11.9139H309.344ZM319.908 12.6289L318.452 9.1059C318.296 8.72457 318.161 8.30424 318.049 7.8449H318.01C318.001 8.16557 317.914 8.59024 317.75 9.1189L316.658 12.5249H315.943L317.932 6.4019H318.049L319.634 10.3149C319.808 10.7742 319.916 11.1339 319.96 11.3939H319.986C320.029 11.1339 320.137 10.7742 320.311 10.3149L321.897 6.4019H322.014L324.003 12.5249H323.288L322.196 9.1189C322.031 8.59024 321.944 8.16557 321.936 7.8449H321.897C321.784 8.30424 321.65 8.72457 321.494 9.1059L320.038 12.6289H319.908ZM327.29 6.3239C328.114 6.3239 328.72 6.51457 329.11 6.8959C329.5 7.27724 329.695 7.86657 329.695 8.6639V12.5249H329.045C329.045 12.1869 329.071 11.7926 329.123 11.3419L329.097 11.3289C328.907 11.7622 328.603 12.1046 328.187 12.3559C327.771 12.5986 327.299 12.7199 326.77 12.7199C326.068 12.7199 325.501 12.5249 325.067 12.1349C324.643 11.7362 324.43 11.2162 324.43 10.5749C324.43 9.9249 324.643 9.40924 325.067 9.0279C325.501 8.6379 326.077 8.4429 326.796 8.4429C327.325 8.4429 327.793 8.56424 328.2 8.8069C328.616 9.0409 328.911 9.36157 329.084 9.7689L329.123 9.7429C329.08 9.59557 329.058 9.2489 329.058 8.7029C329.05 7.55024 328.456 6.9739 327.277 6.9739C326.688 6.9739 326.016 7.09524 325.262 7.3379L325.067 6.6879C325.899 6.44524 326.64 6.3239 327.29 6.3239ZM326.913 9.0539C326.376 9.0539 325.947 9.1969 325.626 9.4829C325.306 9.76024 325.145 10.1329 325.145 10.6009C325.145 11.0516 325.306 11.4156 325.626 11.6929C325.947 11.9702 326.376 12.1089 326.913 12.1089C327.477 12.1089 327.953 11.9616 328.343 11.6669C328.733 11.3722 328.928 11.0126 328.928 10.5879C328.928 10.1546 328.733 9.79057 328.343 9.4959C327.953 9.20124 327.477 9.0539 326.913 9.0539ZM334.347 12.7199C333.385 12.7199 332.605 12.4252 332.007 11.8359C331.409 11.2466 331.11 10.4752 331.11 9.5219C331.11 8.56857 331.409 7.79724 332.007 7.2079C332.605 6.61857 333.385 6.3239 334.347 6.3239C335.092 6.3239 335.773 6.5189 336.388 6.9089L336.063 7.4939C335.491 7.14724 334.91 6.9739 334.321 6.9739C333.593 6.9739 332.991 7.21657 332.514 7.7019C332.046 8.17857 331.812 8.78524 331.812 9.5219C331.812 10.2586 332.046 10.8696 332.514 11.3549C332.991 11.8316 333.593 12.0699 334.321 12.0699C334.91 12.0699 335.491 11.8966 336.063 11.5499L336.388 12.1349C335.773 12.5249 335.092 12.7199 334.347 12.7199ZM342.751 6.5189V12.5249H342.088V7.4289C342.088 7.29024 342.11 7.17757 342.153 7.0909L342.14 7.0779C342.08 7.11257 341.958 7.1299 341.776 7.1299H339.293C339.12 7.1299 338.999 7.11257 338.929 7.0779L338.916 7.0909C338.96 7.17757 338.981 7.29024 338.981 7.4289V10.9779C338.981 12.0266 338.509 12.5509 337.564 12.5509H337.005V11.9399H337.551C338.071 11.9399 338.331 11.6149 338.331 10.9649V6.5189H342.751ZM346.93 6.3239C347.753 6.3239 348.36 6.51457 348.75 6.8959C349.14 7.27724 349.335 7.86657 349.335 8.6639V12.5249H348.685C348.685 12.1869 348.711 11.7926 348.763 11.3419L348.737 11.3289C348.546 11.7622 348.243 12.1046 347.827 12.3559C347.411 12.5986 346.939 12.7199 346.41 12.7199C345.708 12.7199 345.14 12.5249 344.707 12.1349C344.282 11.7362 344.07 11.2162 344.07 10.5749C344.07 9.9249 344.282 9.40924 344.707 9.0279C345.14 8.6379 345.717 8.4429 346.436 8.4429C346.965 8.4429 347.433 8.56424 347.84 8.8069C348.256 9.0409 348.551 9.36157 348.724 9.7689L348.763 9.7429C348.72 9.59557 348.698 9.2489 348.698 8.7029C348.689 7.55024 348.096 6.9739 346.917 6.9739C346.328 6.9739 345.656 7.09524 344.902 7.3379L344.707 6.6879C345.539 6.44524 346.28 6.3239 346.93 6.3239ZM346.553 9.0539C346.016 9.0539 345.587 9.1969 345.266 9.4829C344.945 9.76024 344.785 10.1329 344.785 10.6009C344.785 11.0516 344.945 11.4156 345.266 11.6929C345.587 11.9702 346.016 12.1089 346.553 12.1089C347.116 12.1089 347.593 11.9616 347.983 11.6669C348.373 11.3722 348.568 11.0126 348.568 10.5879C348.568 10.1546 348.373 9.79057 347.983 9.4959C347.593 9.20124 347.116 9.0539 346.553 9.0539Z" fill="#2B2B2A"/>
<rect x="371" y="2.0249" width="12" height="12" rx="2" fill="#F9A823"/>
<path d="M399.021 3.4249V12.5249H398.306V4.3999C398.306 4.2699 398.319 4.1659 398.345 4.0879L398.332 4.0749C398.271 4.09224 398.159 4.1009 397.994 4.1009H393.106C392.933 4.1009 392.82 4.09224 392.768 4.0749L392.755 4.0879C392.781 4.1659 392.794 4.2699 392.794 4.3999V12.5249H392.079V3.4249H399.021ZM404.315 6.3239C405.207 6.3239 405.931 6.6229 406.486 7.2209C407.049 7.81024 407.331 8.57724 407.331 9.5219C407.331 10.4666 407.049 11.2379 406.486 11.8359C405.931 12.4252 405.207 12.7199 404.315 12.7199C403.006 12.7199 402.109 12.1176 401.624 10.9129L401.572 10.9259C401.658 11.2726 401.702 11.6972 401.702 12.1999V15.1249H401.052V6.5189H401.689C401.689 7.29024 401.658 7.84057 401.598 8.1699L401.637 8.1829C401.862 7.59357 402.204 7.13857 402.664 6.8179C403.132 6.48857 403.682 6.3239 404.315 6.3239ZM404.224 6.9869C403.461 6.9869 402.841 7.22524 402.365 7.7019C401.888 8.1699 401.65 8.77657 401.65 9.5219C401.65 10.2759 401.892 10.8869 402.378 11.3549C402.863 11.8229 403.491 12.0569 404.263 12.0569C404.973 12.0569 405.545 11.8272 405.979 11.3679C406.412 10.9086 406.629 10.2976 406.629 9.5349C406.629 8.76357 406.408 8.14824 405.966 7.6889C405.532 7.2209 404.952 6.9869 404.224 6.9869ZM411.46 6.3239C412.336 6.3239 413.029 6.60557 413.54 7.1689C414.06 7.73224 414.32 8.49057 414.32 9.4439V9.5999H409.614C409.337 9.5999 409.155 9.57824 409.068 9.5349L409.055 9.5479L409.081 9.6649C409.09 10.4016 409.315 10.9909 409.757 11.4329C410.199 11.8662 410.784 12.0829 411.512 12.0829C411.963 12.0829 412.362 11.9919 412.708 11.8099C413.064 11.6192 413.406 11.3116 413.735 10.8869L414.203 11.3159C413.519 12.2519 412.617 12.7199 411.499 12.7199C410.555 12.7199 409.801 12.4296 409.237 11.8489C408.674 11.2596 408.392 10.4796 408.392 9.5089C408.392 8.53824 408.67 7.7669 409.224 7.1949C409.788 6.61424 410.533 6.3239 411.46 6.3239ZM411.447 6.9479C410.771 6.9479 410.221 7.1429 409.796 7.5329C409.38 7.9229 409.142 8.45157 409.081 9.1189L409.094 9.1319C409.207 9.07124 409.385 9.0409 409.627 9.0409H413.02C413.254 9.0409 413.449 9.0669 413.605 9.1189L413.618 9.1059C413.566 8.42124 413.35 7.89257 412.968 7.5199C412.596 7.13857 412.089 6.9479 411.447 6.9479ZM414.67 14.3449V11.9139H415.099C415.237 11.9139 415.337 11.9312 415.398 11.9659L415.411 11.9529C415.393 11.8576 415.419 11.7536 415.489 11.6409C416.147 10.4796 416.477 9.1839 416.477 7.7539V6.5189H420.26V11.6149C420.26 11.7536 420.238 11.8662 420.195 11.9529L420.208 11.9659C420.277 11.9312 420.398 11.9139 420.572 11.9139H420.897V14.3449H420.273V12.8239C420.273 12.6852 420.294 12.5726 420.338 12.4859L420.325 12.4729C420.255 12.5076 420.134 12.5249 419.961 12.5249H415.606C415.432 12.5249 415.311 12.5076 415.242 12.4729L415.229 12.4859C415.272 12.5726 415.294 12.6852 415.294 12.8239V14.3449H414.67ZM416.009 11.9659C416.078 11.9312 416.204 11.9139 416.386 11.9139H419.311C419.493 11.9139 419.614 11.9312 419.675 11.9659L419.688 11.9529C419.644 11.8662 419.623 11.7536 419.623 11.6149V7.4289C419.623 7.29024 419.644 7.17757 419.688 7.0909L419.675 7.0779C419.597 7.11257 419.475 7.1299 419.311 7.1299H417.426C417.278 7.1299 417.157 7.11257 417.062 7.0779L417.049 7.0909C417.092 7.17757 417.114 7.29024 417.114 7.4289V8.0659C417.114 8.75924 416.997 9.50024 416.763 10.2889C416.537 11.0689 416.282 11.6236 415.996 11.9529L416.009 11.9659ZM426.99 6.5189L423.207 15.1249H422.518L423.844 12.0829L421.218 6.5189H421.985L423.727 10.3409C423.978 10.8782 424.121 11.3029 424.156 11.6149H424.208C424.243 11.3029 424.377 10.8826 424.611 10.3539L426.275 6.5189H426.99ZM432.956 6.5189V12.5249H432.293V7.4289C432.293 7.29024 432.315 7.17757 432.358 7.0909L432.345 7.0779C432.276 7.11257 432.155 7.1299 431.981 7.1299H428.913C428.74 7.1299 428.619 7.11257 428.549 7.0779L428.536 7.0909C428.58 7.17757 428.601 7.29024 428.601 7.4289V12.5249H427.951V6.5189H432.956ZM438.033 6.3239C438.926 6.3239 439.65 6.6229 440.204 7.2209C440.768 7.81024 441.049 8.57724 441.049 9.5219C441.049 10.4666 440.768 11.2379 440.204 11.8359C439.65 12.4252 438.926 12.7199 438.033 12.7199C436.725 12.7199 435.828 12.1176 435.342 10.9129L435.29 10.9259C435.377 11.2726 435.42 11.6972 435.42 12.1999V15.1249H434.77V6.5189H435.407C435.407 7.29024 435.377 7.84057 435.316 8.1699L435.355 8.1829C435.581 7.59357 435.923 7.13857 436.382 6.8179C436.85 6.48857 437.401 6.3239 438.033 6.3239ZM437.942 6.9869C437.18 6.9869 436.56 7.22524 436.083 7.7019C435.607 8.1699 435.368 8.77657 435.368 9.5219C435.368 10.2759 435.611 10.8869 436.096 11.3549C436.582 11.8229 437.21 12.0569 437.981 12.0569C438.692 12.0569 439.264 11.8272 439.697 11.3679C440.131 10.9086 440.347 10.2976 440.347 9.5349C440.347 8.76357 440.126 8.14824 439.684 7.6889C439.251 7.2209 438.67 6.9869 437.942 6.9869ZM445.179 6.3239C446.054 6.3239 446.748 6.60557 447.259 7.1689C447.779 7.73224 448.039 8.49057 448.039 9.4439V9.5999H443.333C443.056 9.5999 442.874 9.57824 442.787 9.5349L442.774 9.5479L442.8 9.6649C442.809 10.4016 443.034 10.9909 443.476 11.4329C443.918 11.8662 444.503 12.0829 445.231 12.0829C445.682 12.0829 446.08 11.9919 446.427 11.8099C446.782 11.6192 447.125 11.3116 447.454 10.8869L447.922 11.3159C447.237 12.2519 446.336 12.7199 445.218 12.7199C444.273 12.7199 443.519 12.4296 442.956 11.8489C442.393 11.2596 442.111 10.4796 442.111 9.5089C442.111 8.53824 442.388 7.7669 442.943 7.1949C443.506 6.61424 444.252 6.3239 445.179 6.3239ZM445.166 6.9479C444.49 6.9479 443.94 7.1429 443.515 7.5329C443.099 7.9229 442.861 8.45157 442.8 9.1189L442.813 9.1319C442.926 9.07124 443.103 9.0409 443.346 9.0409H446.739C446.973 9.0409 447.168 9.0669 447.324 9.1189L447.337 9.1059C447.285 8.42124 447.068 7.89257 446.687 7.5199C446.314 7.13857 445.807 6.9479 445.166 6.9479ZM448.388 12.5509V11.9529H448.804C449.159 11.9529 449.402 11.7406 449.532 11.3159L449.857 10.1849C449.943 9.90757 450.082 9.71257 450.273 9.5999C450.463 9.47857 450.732 9.40924 451.079 9.3919V9.3659C450.732 9.34857 450.455 9.27924 450.247 9.1579C450.047 9.0279 449.891 8.80257 449.779 8.4819L449.454 7.6239C449.324 7.26857 449.094 7.0909 448.765 7.0909H448.401V6.4929H448.869C449.406 6.4929 449.774 6.73124 449.974 7.2079L450.377 8.2349C450.498 8.55557 450.637 8.7809 450.793 8.9109C450.957 9.0409 451.183 9.1059 451.469 9.1059H451.794C451.993 9.1059 452.127 9.11457 452.197 9.1319L452.21 9.1189C452.166 8.94557 452.145 8.77224 452.145 8.5989V6.5189H452.769V8.5989C452.769 8.81557 452.747 8.9889 452.704 9.1189L452.717 9.1319C452.803 9.11457 452.938 9.1059 453.12 9.1059H453.458C453.744 9.1059 453.965 9.0409 454.121 8.9109C454.285 8.7809 454.428 8.55557 454.55 8.2349L454.953 7.2079C455.152 6.73124 455.516 6.4929 456.045 6.4929H456.526V7.0909H456.162C455.832 7.0909 455.598 7.26857 455.46 7.6239L455.148 8.4819C455.026 8.80257 454.866 9.0279 454.667 9.1579C454.467 9.27924 454.194 9.34857 453.848 9.3659V9.3919C454.194 9.40924 454.463 9.47857 454.654 9.5999C454.844 9.71257 454.979 9.90757 455.057 10.1849L455.395 11.3159C455.525 11.7406 455.767 11.9529 456.123 11.9529H456.539V12.5509H455.993C455.377 12.5509 454.983 12.2476 454.81 11.6409L454.498 10.5489C454.333 9.96824 453.986 9.6779 453.458 9.6779H453.12C452.938 9.6779 452.803 9.66924 452.717 9.6519L452.704 9.6649C452.747 9.7949 452.769 9.9769 452.769 10.2109V12.5249H452.145V10.2109C452.145 10.0202 452.166 9.83824 452.21 9.6649L452.197 9.6519C452.127 9.66924 451.993 9.6779 451.794 9.6779H451.469C450.94 9.6779 450.593 9.96824 450.429 10.5489L450.117 11.6409C449.943 12.2476 449.545 12.5509 448.921 12.5509H448.388ZM456.983 14.3449V11.9139H457.412C457.551 11.9139 457.65 11.9312 457.711 11.9659L457.724 11.9529C457.707 11.8576 457.733 11.7536 457.802 11.6409C458.461 10.4796 458.79 9.1839 458.79 7.7539V6.5189H462.573V11.6149C462.573 11.7536 462.551 11.8662 462.508 11.9529L462.521 11.9659C462.59 11.9312 462.712 11.9139 462.885 11.9139H463.21V14.3449H462.586V12.8239C462.586 12.6852 462.608 12.5726 462.651 12.4859L462.638 12.4729C462.569 12.5076 462.447 12.5249 462.274 12.5249H457.919C457.746 12.5249 457.624 12.5076 457.555 12.4729L457.542 12.4859C457.585 12.5726 457.607 12.6852 457.607 12.8239V14.3449H456.983ZM458.322 11.9659C458.391 11.9312 458.517 11.9139 458.699 11.9139H461.624C461.806 11.9139 461.927 11.9312 461.988 11.9659L462.001 11.9529C461.958 11.8662 461.936 11.7536 461.936 11.6149V7.4289C461.936 7.29024 461.958 7.17757 462.001 7.0909L461.988 7.0779C461.91 7.11257 461.789 7.1299 461.624 7.1299H459.739C459.592 7.1299 459.47 7.11257 459.375 7.0779L459.362 7.0909C459.405 7.17757 459.427 7.29024 459.427 7.4289V8.0659C459.427 8.75924 459.31 9.50024 459.076 10.2889C458.851 11.0689 458.595 11.6236 458.309 11.9529L458.322 11.9659ZM466.926 6.3239C467.802 6.3239 468.495 6.60557 469.006 7.1689C469.526 7.73224 469.786 8.49057 469.786 9.4439V9.5999H465.08C464.803 9.5999 464.621 9.57824 464.534 9.5349L464.521 9.5479L464.547 9.6649C464.556 10.4016 464.781 10.9909 465.223 11.4329C465.665 11.8662 466.25 12.0829 466.978 12.0829C467.429 12.0829 467.828 11.9919 468.174 11.8099C468.53 11.6192 468.872 11.3116 469.201 10.8869L469.669 11.3159C468.985 12.2519 468.083 12.7199 466.965 12.7199C466.021 12.7199 465.267 12.4296 464.703 11.8489C464.14 11.2596 463.858 10.4796 463.858 9.5089C463.858 8.53824 464.136 7.7669 464.69 7.1949C465.254 6.61424 465.999 6.3239 466.926 6.3239ZM466.913 6.9479C466.237 6.9479 465.687 7.1429 465.262 7.5329C464.846 7.9229 464.608 8.45157 464.547 9.1189L464.56 9.1319C464.673 9.07124 464.851 9.0409 465.093 9.0409H468.486C468.72 9.0409 468.915 9.0669 469.071 9.1189L469.084 9.1059C469.032 8.42124 468.816 7.89257 468.434 7.5199C468.062 7.13857 467.555 6.9479 466.913 6.9479ZM475.78 6.5189H476.443V12.5249H475.78V9.9119C475.78 9.7559 475.802 9.63457 475.845 9.5479L475.832 9.5349C475.745 9.57824 475.628 9.5999 475.481 9.5999H472.231C472.092 9.5999 471.98 9.57824 471.893 9.5349L471.88 9.5479C471.915 9.61724 471.932 9.73857 471.932 9.9119V12.5249H471.282V6.5189H471.932V8.6769C471.932 8.85024 471.915 8.97157 471.88 9.0409L471.893 9.0539C471.98 9.01057 472.092 8.9889 472.231 8.9889H475.481C475.628 8.9889 475.745 9.01057 475.832 9.0539L475.845 9.0409C475.802 8.95424 475.78 8.8329 475.78 8.6769V6.5189ZM478.341 12.6419V6.5189H478.991V9.8339C478.991 10.4319 478.969 10.9476 478.926 11.3809L478.965 11.3939C479.095 11.1252 479.32 10.8089 479.641 10.4449L483.32 6.4019H483.463V12.5249H482.813V9.2099C482.813 8.6119 482.834 8.09624 482.878 7.6629L482.839 7.6499C482.709 7.91857 482.483 8.2349 482.163 8.5989L478.484 12.6419H478.341ZM488.013 6.3239C488.888 6.3239 489.582 6.60557 490.093 7.1689C490.613 7.73224 490.873 8.49057 490.873 9.4439V9.5999H486.167C485.89 9.5999 485.708 9.57824 485.621 9.5349L485.608 9.5479L485.634 9.6649C485.643 10.4016 485.868 10.9909 486.31 11.4329C486.752 11.8662 487.337 12.0829 488.065 12.0829C488.516 12.0829 488.914 11.9919 489.261 11.8099C489.616 11.6192 489.959 11.3116 490.288 10.8869L490.756 11.3159C490.071 12.2519 489.17 12.7199 488.052 12.7199C487.107 12.7199 486.353 12.4296 485.79 11.8489C485.227 11.2596 484.945 10.4796 484.945 9.5089C484.945 8.53824 485.222 7.7669 485.777 7.1949C486.34 6.61424 487.086 6.3239 488.013 6.3239ZM488 6.9479C487.324 6.9479 486.774 7.1429 486.349 7.5329C485.933 7.9229 485.695 8.45157 485.634 9.1189L485.647 9.1319C485.76 9.07124 485.937 9.0409 486.18 9.0409H489.573C489.807 9.0409 490.002 9.0669 490.158 9.1189L490.171 9.1059C490.119 8.42124 489.902 7.89257 489.521 7.5199C489.148 7.13857 488.641 6.9479 488 6.9479Z" fill="#2B2B2A"/>
<rect x="512" y="2.0249" width="12" height="12" rx="2" fill="#E32112"/>
<path d="M533.898 4.5689C534.791 3.67624 535.926 3.2299 537.304 3.2299C538.682 3.2299 539.817 3.67624 540.71 4.5689C541.603 5.46157 542.049 6.5969 542.049 7.9749C542.049 9.3529 541.603 10.4882 540.71 11.3809C539.817 12.2736 538.682 12.7199 537.304 12.7199C535.926 12.7199 534.791 12.2736 533.898 11.3809C533.005 10.4882 532.559 9.3529 532.559 7.9749C532.559 6.5969 533.005 5.46157 533.898 4.5689ZM540.164 5.0759C539.419 4.3219 538.465 3.9449 537.304 3.9449C536.143 3.9449 535.189 4.3219 534.444 5.0759C533.699 5.8299 533.326 6.79624 533.326 7.9749C533.326 9.15357 533.699 10.1199 534.444 10.8739C535.189 11.6279 536.143 12.0049 537.304 12.0049C538.465 12.0049 539.419 11.6279 540.164 10.8739C540.909 10.1199 541.282 9.15357 541.282 7.9749C541.282 6.79624 540.909 5.8299 540.164 5.0759ZM548.49 6.5189V12.5249H547.827V7.4289C547.827 7.29024 547.848 7.17757 547.892 7.0909L547.879 7.0779C547.809 7.11257 547.688 7.1299 547.515 7.1299H544.447C544.273 7.1299 544.152 7.11257 544.083 7.0779L544.07 7.0909C544.113 7.17757 544.135 7.29024 544.135 7.4289V12.5249H543.485V6.5189H548.49ZM552.656 6.3239C553.48 6.3239 554.086 6.51457 554.476 6.8959C554.866 7.27724 555.061 7.86657 555.061 8.6639V12.5249H554.411C554.411 12.1869 554.437 11.7926 554.489 11.3419L554.463 11.3289C554.273 11.7622 553.969 12.1046 553.553 12.3559C553.137 12.5986 552.665 12.7199 552.136 12.7199C551.434 12.7199 550.867 12.5249 550.433 12.1349C550.009 11.7362 549.796 11.2162 549.796 10.5749C549.796 9.9249 550.009 9.40924 550.433 9.0279C550.867 8.6379 551.443 8.4429 552.162 8.4429C552.691 8.4429 553.159 8.56424 553.566 8.8069C553.982 9.0409 554.277 9.36157 554.45 9.7689L554.489 9.7429C554.446 9.59557 554.424 9.2489 554.424 8.7029C554.416 7.55024 553.822 6.9739 552.643 6.9739C552.054 6.9739 551.382 7.09524 550.628 7.3379L550.433 6.6879C551.265 6.44524 552.006 6.3239 552.656 6.3239ZM552.279 9.0539C551.742 9.0539 551.313 9.1969 550.992 9.4829C550.672 9.76024 550.511 10.1329 550.511 10.6009C550.511 11.0516 550.672 11.4156 550.992 11.6929C551.313 11.9702 551.742 12.1089 552.279 12.1089C552.843 12.1089 553.319 11.9616 553.709 11.6669C554.099 11.3722 554.294 11.0126 554.294 10.5879C554.294 10.1546 554.099 9.79057 553.709 9.4959C553.319 9.20124 552.843 9.0539 552.279 9.0539ZM559.713 12.7199C558.751 12.7199 557.971 12.4252 557.373 11.8359C556.775 11.2466 556.476 10.4752 556.476 9.5219C556.476 8.56857 556.775 7.79724 557.373 7.2079C557.971 6.61857 558.751 6.3239 559.713 6.3239C560.459 6.3239 561.139 6.5189 561.754 6.9089L561.429 7.4939C560.857 7.14724 560.277 6.9739 559.687 6.9739C558.959 6.9739 558.357 7.21657 557.88 7.7019C557.412 8.17857 557.178 8.78524 557.178 9.5219C557.178 10.2586 557.412 10.8696 557.88 11.3549C558.357 11.8316 558.959 12.0699 559.687 12.0699C560.277 12.0699 560.857 11.8966 561.429 11.5499L561.754 12.1349C561.139 12.5249 560.459 12.7199 559.713 12.7199ZM567.636 6.5189H568.299V12.5249H567.636V9.9119C567.636 9.7559 567.658 9.63457 567.701 9.5479L567.688 9.5349C567.602 9.57824 567.485 9.5999 567.337 9.5999H564.087C563.949 9.5999 563.836 9.57824 563.749 9.5349L563.736 9.5479C563.771 9.61724 563.788 9.73857 563.788 9.9119V12.5249H563.138V6.5189H563.788V8.6769C563.788 8.85024 563.771 8.97157 563.736 9.0409L563.749 9.0539C563.836 9.01057 563.949 8.9889 564.087 8.9889H567.337C567.485 8.9889 567.602 9.01057 567.688 9.0539L567.701 9.0409C567.658 8.95424 567.636 8.8329 567.636 8.6769V6.5189ZM573.005 6.3239C573.95 6.3239 574.721 6.6229 575.319 7.2209C575.926 7.8189 576.229 8.5859 576.229 9.5219C576.229 10.4492 575.926 11.2162 575.319 11.8229C574.721 12.4209 573.95 12.7199 573.005 12.7199C572.069 12.7199 571.298 12.4209 570.691 11.8229C570.084 11.2162 569.781 10.4492 569.781 9.5219C569.781 8.5859 570.084 7.8189 570.691 7.2209C571.298 6.6229 572.069 6.3239 573.005 6.3239ZM574.812 7.6889C574.344 7.21224 573.742 6.9739 573.005 6.9739C572.268 6.9739 571.662 7.21224 571.185 7.6889C570.717 8.16557 570.483 8.77657 570.483 9.5219C570.483 10.2672 570.717 10.8782 571.185 11.3549C571.662 11.8316 572.268 12.0699 573.005 12.0699C573.742 12.0699 574.344 11.8316 574.812 11.3549C575.289 10.8782 575.527 10.2672 575.527 9.5219C575.527 8.77657 575.289 8.16557 574.812 7.6889ZM580.534 12.7199C579.572 12.7199 578.792 12.4252 578.194 11.8359C577.596 11.2466 577.297 10.4752 577.297 9.5219C577.297 8.56857 577.596 7.79724 578.194 7.2079C578.792 6.61857 579.572 6.3239 580.534 6.3239C581.279 6.3239 581.959 6.5189 582.575 6.9089L582.25 7.4939C581.678 7.14724 581.097 6.9739 580.508 6.9739C579.78 6.9739 579.177 7.21657 578.701 7.7019C578.233 8.17857 577.999 8.78524 577.999 9.5219C577.999 10.2586 578.233 10.8696 578.701 11.3549C579.177 11.8316 579.78 12.0699 580.508 12.0699C581.097 12.0699 581.678 11.8966 582.25 11.5499L582.575 12.1349C581.959 12.5249 581.279 12.7199 580.534 12.7199ZM583.075 6.5189H588.769V7.1299H586.559C586.385 7.1299 586.264 7.11257 586.195 7.0779L586.182 7.0909C586.225 7.17757 586.247 7.29024 586.247 7.4289V12.5249H585.597V7.4289C585.597 7.29024 585.618 7.17757 585.662 7.0909L585.649 7.0779C585.579 7.11257 585.458 7.1299 585.285 7.1299H583.075V6.5189ZM592.386 8.7809C593.001 8.7809 593.491 8.9499 593.855 9.2879C594.228 9.61724 594.414 10.0722 594.414 10.6529C594.414 11.2249 594.228 11.6799 593.855 12.0179C593.482 12.3559 592.993 12.5249 592.386 12.5249H589.786V6.5189H590.436V8.4819C590.436 8.64657 590.419 8.76357 590.384 8.8329L590.397 8.8459C590.475 8.80257 590.588 8.7809 590.735 8.7809H592.386ZM592.36 11.9139C592.785 11.9139 593.114 11.8012 593.348 11.5759C593.591 11.3419 593.712 11.0342 593.712 10.6529C593.712 10.2716 593.595 9.96824 593.361 9.7429C593.127 9.51757 592.793 9.4049 592.36 9.4049H590.735C590.588 9.4049 590.475 9.38324 590.397 9.3399L590.384 9.3529C590.419 9.42224 590.436 9.54357 590.436 9.7169V11.6149C590.436 11.7536 590.414 11.8662 590.371 11.9529L590.384 11.9659C590.453 11.9312 590.575 11.9139 590.748 11.9139H592.36Z" fill="#2B2B2A"/>
<defs>
<clipPath id="clip0_392_13973">
<rect width="14" height="14" fill="white" transform="translate(7 1.0249)"/>
</clipPath>
</defs>
</svg>
