<svg width="112" height="18" viewBox="0 0 112 18" fill="none" xmlns="http://www.w3.org/2000/svg">
<path d="M17.4127 0H0V3.57085H17.4127V0Z" fill="#FCB53B"/>
<path d="M17.4127 7.21411H0V10.785H17.4127V7.21411Z" fill="#F57F29"/>
<path d="M17.4127 14.429H0V17.9998H17.4127V14.429Z" fill="#E32213"/>
<path d="M24.3916 0V18H38.7024V14.4291H27.8459V10.7854H38.7024V7.21457H27.8459V3.57085H38.7024V0H24.3916Z" fill="black"/>
<path fill-rule="evenodd" clip-rule="evenodd" d="M82.4109 0L75.7137 18H79.732L81.0715 14.3563H89.1786L90.518 17.9271H94.4658L87.3457 0H82.4109ZM85.0898 3.57085L87.8392 10.7854H82.3404L85.0898 3.57085Z" fill="black"/>
<path d="M96.8628 17.9997V14.2831H106.168C107.085 14.2831 107.86 13.4815 107.86 12.5341C107.86 11.5867 107.085 10.7851 106.168 10.7851H98.6252V7.21426H106.168C107.085 7.21426 107.86 6.41264 107.86 5.46527C107.86 4.51791 107.085 3.71629 106.168 3.71629H96.8628V0.0725619H106.309C109.129 0.0725619 111.526 2.47742 111.526 5.3924C111.526 6.77701 111.244 7.94301 109.411 9.03612C111.033 9.91062 111.526 11.2952 111.526 12.6798C111.526 16.0321 109.129 17.9997 106.309 17.9997H96.8628Z" fill="black"/>
<path fill-rule="evenodd" clip-rule="evenodd" d="M70.9195 0H61.332V18H64.7863V10.7854H70.9195C73.8099 10.7854 76.1362 8.38057 76.1362 5.39271C76.1362 2.40486 73.8099 0 70.9195 0ZM70.7785 7.21457H64.7863V3.64372H70.7785C71.695 3.64372 72.4704 4.44534 72.4704 5.39271C72.4704 6.41296 71.695 7.21457 70.7785 7.21457Z" fill="black"/>
<path fill-rule="evenodd" clip-rule="evenodd" d="M57.596 5.31984C57.596 6.70445 57.314 7.87044 55.4811 8.96356C57.1025 9.91093 57.737 11.2955 57.8075 12.6802C57.8075 16.0324 55.4106 18 52.5908 18H42.8622V0H52.3793C55.1991 0 57.596 2.40486 57.596 5.31984ZM52.1678 3.64372H46.3166V7.1417H52.1678C53.0842 7.1417 53.8597 6.34008 53.8597 5.39271C53.8597 4.44534 53.0842 3.64372 52.1678 3.64372ZM46.3166 14.3563H52.3793C53.3662 14.3563 54.1417 13.5547 54.0712 12.5344C54.0712 11.587 53.2957 10.7854 52.3793 10.7854H46.3166V14.3563Z" fill="black"/>
</svg>