<svg width="36" height="21" viewBox="0 0 36 21" fill="none" xmlns="http://www.w3.org/2000/svg">
<rect x="1.49677" y="1.02316" width="34.0035" height="19.0035" rx="1.5" fill="#F4F4F4"/>
<path d="M8.16777 5.9249V13.6079C8.16777 13.7552 8.15477 13.8592 8.12877 13.9199L8.15477 13.9459C8.21543 13.9199 8.32377 13.9069 8.47977 13.9069H12.2238V15.0249H6.99777V5.9249H8.16777Z" fill="black"/>
<path d="M27.4991 12.5252C27.4991 15.2873 25.7602 17.0262 22.9981 17.0262C20.2359 17.0262 18.4971 15.2873 18.4971 12.5252C18.4971 9.5611 21.7237 5.55961 22.7133 4.40217C22.7485 4.36104 22.7922 4.32803 22.8414 4.3054C22.8906 4.28276 22.9441 4.27104 22.9982 4.27104C23.0524 4.27104 23.1059 4.28276 23.1551 4.3054C23.2042 4.32803 23.2479 4.36104 23.2831 4.40217C24.2724 5.55961 27.4991 9.5611 27.4991 12.5252Z" stroke="#868686" stroke-width="1.00189" stroke-miterlimit="10"/>
<path d="M25.7504 12.7747C25.7504 13.372 25.5131 13.9449 25.0907 14.3672C24.6684 14.7896 24.0955 15.0269 23.4982 15.0269" stroke="#868686" stroke-width="1.00189" stroke-linecap="round" stroke-linejoin="round"/>
<rect x="1.49677" y="1.02316" width="34.0035" height="19.0035" rx="1.5" stroke="#CCCCCC"/>
</svg>
