<svg width="36" height="21" viewBox="0 0 36 21" fill="none" xmlns="http://www.w3.org/2000/svg">
<rect x="1.49628" y="1.02316" width="34.0035" height="19.0035" rx="1.5" fill="#FCDBCB"/>
<path d="M8.16728 5.9249V13.6079C8.16728 13.7552 8.15428 13.8592 8.12828 13.9199L8.15428 13.9459C8.21494 13.9199 8.32328 13.9069 8.47928 13.9069H12.2233V15.0249H6.99728V5.9249H8.16728Z" fill="black"/>
<path d="M27.4986 12.5252C27.4986 15.2874 25.7598 17.0262 22.9976 17.0262C20.2355 17.0262 18.4966 15.2874 18.4966 12.5252C18.4966 9.56112 21.7233 5.55962 22.7129 4.40218C22.7481 4.36106 22.7918 4.32805 22.841 4.30541C22.8901 4.28278 22.9436 4.27106 22.9978 4.27106C23.0519 4.27106 23.1054 4.28278 23.1546 4.30541C23.2038 4.32805 23.2475 4.36106 23.2827 4.40218C24.272 5.55962 27.4986 9.56112 27.4986 12.5252Z" stroke="#E32112" stroke-width="1.00189" stroke-miterlimit="10"/>
<path d="M25.7499 12.7747C25.7499 13.3721 25.5126 13.9449 25.0902 14.3673C24.6679 14.7896 24.095 15.0269 23.4977 15.0269" stroke="#E32112" stroke-width="1.00189" stroke-linecap="round" stroke-linejoin="round"/>
<rect x="1.49628" y="1.02316" width="34.0035" height="19.0035" rx="1.5" stroke="#EB5835"/>
</svg>
