<svg width="37" height="21" viewBox="0 0 37 21" fill="none" xmlns="http://www.w3.org/2000/svg">
<rect x="0.5" y="1.0249" width="36" height="19" rx="1.5" fill="#FEF1DB"/>
<path d="M12.591 5.9249V7.0429H10.264C10.0993 7.0429 9.98667 7.0299 9.926 7.0039L9.913 7.0299C9.939 7.09057 9.952 7.19457 9.952 7.3419V15.0249H8.782V7.3419C8.782 7.19457 8.795 7.09057 8.821 7.0299L8.795 7.0039C8.73433 7.0299 8.626 7.0429 8.47 7.0429H6.13V5.9249H12.591Z" fill="black"/>
<g clip-path="url(#clip0_392_14469)">
<path d="M24.6159 11.972C24.5804 11.9495 24.5511 11.9184 24.5307 11.8815C24.5104 11.8446 24.4997 11.8032 24.4997 11.7611V5.02609C24.4997 4.62827 24.3417 4.24674 24.0604 3.96543C23.779 3.68413 23.3975 3.52609 22.9997 3.52609C22.6019 3.52609 22.2203 3.68413 21.939 3.96543C21.6577 4.24674 21.4997 4.62827 21.4997 5.02609V11.7611C21.4996 11.8031 21.489 11.8444 21.4687 11.8813C21.4484 11.9181 21.4192 11.9492 21.3838 11.9717C20.9394 12.2611 20.5784 12.6615 20.3362 13.1332C20.094 13.6049 19.9791 14.1317 20.0028 14.6614C20.0386 15.4442 20.3792 16.182 20.9519 16.7169C21.5246 17.2519 22.2839 17.5414 23.0674 17.5238C23.8508 17.5061 24.5963 17.1825 25.1443 16.6223C25.6922 16.0621 25.9993 15.3098 25.9997 14.5261C25.9999 14.0188 25.8735 13.5195 25.6318 13.0735C25.3902 12.6275 25.041 12.2489 24.6159 11.972V11.972Z" stroke="#F37E0D" stroke-width="1.00189" stroke-miterlimit="10" stroke-linecap="round"/>
<path d="M22.9996 6.02649V14.5265" stroke="#F37E0D" stroke-width="1.00189" stroke-miterlimit="10" stroke-linecap="round"/>
<path d="M23.0006 16.0272C23.8296 16.0272 24.5017 15.3551 24.5017 14.5261C24.5017 13.697 23.8296 13.025 23.0006 13.025C22.1715 13.025 21.4995 13.697 21.4995 14.5261C21.4995 15.3551 22.1715 16.0272 23.0006 16.0272Z" fill="#F37E0D"/>
</g>
<rect x="0.5" y="1.0249" width="36" height="19" rx="1.5" stroke="#F69112"/>
<defs>
<clipPath id="clip0_392_14469">
<rect width="16" height="16" fill="white" transform="translate(15 2.5249)"/>
</clipPath>
</defs>
</svg>
