<svg width="38" height="21" viewBox="0 0 38 21" fill="none" xmlns="http://www.w3.org/2000/svg">
<rect x="1.49701" y="1.02316" width="36" height="19" rx="1.5" fill="#FCDBCB"/>
<path d="M13.588 5.92316V7.04116H11.261C11.0963 7.04116 10.9837 7.02816 10.923 7.00216L10.91 7.02816C10.936 7.08883 10.949 7.19283 10.949 7.34016V15.0232H9.77901V7.34016C9.77901 7.19283 9.79201 7.08883 9.81801 7.02816L9.79201 7.00216C9.73134 7.02816 9.62301 7.04116 9.46701 7.04116H7.12701V5.92316H13.588Z" fill="black"/>
<g clip-path="url(#clip0_392_14314)">
<path d="M25.6129 11.9703C25.5774 11.9478 25.5481 11.9166 25.5277 11.8797C25.5074 11.8429 25.4967 11.8015 25.4967 11.7594V5.02435C25.4967 4.62653 25.3387 4.245 25.0574 3.96369C24.7761 3.68239 24.3945 3.52435 23.9967 3.52435C23.5989 3.52435 23.2173 3.68239 22.936 3.96369C22.6547 4.245 22.4967 4.62653 22.4967 5.02435V11.7594C22.4966 11.8014 22.486 11.8427 22.4657 11.8795C22.4454 11.9163 22.4162 11.9474 22.3808 11.97C21.9365 12.2594 21.5754 12.6598 21.3332 13.1315C21.091 13.6032 20.9761 14.1299 20.9998 14.6597C21.0356 15.4425 21.3762 16.1803 21.9489 16.7152C22.5216 17.2501 23.2809 17.5397 24.0644 17.522C24.8478 17.5043 25.5933 17.1808 26.1413 16.6206C26.6893 16.0604 26.9963 15.308 26.9967 14.5244C26.9969 14.0171 26.8705 13.5178 26.6288 13.0718C26.3872 12.6258 26.038 12.2472 25.6129 11.9703V11.9703Z" stroke="#E32112" stroke-width="1.00189" stroke-miterlimit="10" stroke-linecap="round"/>
<path d="M23.9966 6.02475V14.5248" stroke="#E32112" stroke-width="1.00189" stroke-miterlimit="10" stroke-linecap="round"/>
<path d="M23.9976 16.0254C24.8266 16.0254 25.4987 15.3534 25.4987 14.5243C25.4987 13.6953 24.8266 13.0232 23.9976 13.0232C23.1685 13.0232 22.4965 13.6953 22.4965 14.5243C22.4965 15.3534 23.1685 16.0254 23.9976 16.0254Z" fill="#E32112"/>
</g>
<rect x="1.49701" y="1.02316" width="36" height="19" rx="1.5" stroke="#EB5835"/>
<defs>
<clipPath id="clip0_392_14314">
<rect width="16" height="16" fill="white" transform="translate(15.997 2.52316)"/>
</clipPath>
</defs>
</svg>
