<svg width="38" height="21" viewBox="0 0 38 21" fill="none" xmlns="http://www.w3.org/2000/svg">
<rect x="1.49677" y="1.02316" width="36" height="19" rx="1.5" fill="#F4F4F4"/>
<path d="M13.5878 5.92316V7.04116H11.2608C11.0961 7.04116 10.9834 7.02816 10.9228 7.00216L10.9098 7.02816C10.9358 7.08883 10.9488 7.19283 10.9488 7.34016V15.0232H9.77877V7.34016C9.77877 7.19283 9.79177 7.08883 9.81777 7.02816L9.79177 7.00216C9.7311 7.02816 9.62277 7.04116 9.46677 7.04116H7.12677V5.92316H13.5878Z" fill="black"/>
<g clip-path="url(#clip0_392_14135)">
<path d="M25.6127 11.9703C25.5771 11.9478 25.5478 11.9166 25.5275 11.8797C25.5072 11.8429 25.4965 11.8015 25.4965 11.7594V5.02435C25.4965 4.62653 25.3384 4.245 25.0571 3.96369C24.7758 3.68239 24.3943 3.52435 23.9965 3.52435C23.5986 3.52435 23.2171 3.68239 22.9358 3.96369C22.6545 4.245 22.4965 4.62653 22.4965 5.02435V11.7594C22.4964 11.8014 22.4857 11.8427 22.4655 11.8795C22.4452 11.9163 22.416 11.9474 22.3805 11.97C21.9362 12.2594 21.5751 12.6598 21.3329 13.1315C21.0907 13.6032 20.9758 14.1299 20.9996 14.6597C21.0353 15.4425 21.376 16.1803 21.9487 16.7152C22.5214 17.2501 23.2807 17.5397 24.0641 17.522C24.8476 17.5043 25.593 17.1808 26.141 16.6206C26.689 16.0604 26.996 15.308 26.9965 14.5244C26.9967 14.0171 26.8702 13.5178 26.6286 13.0718C26.3869 12.6258 26.0377 12.2472 25.6127 11.9703V11.9703Z" stroke="#868686" stroke-width="1.00189" stroke-miterlimit="10" stroke-linecap="round"/>
<path d="M23.9964 6.02475V14.5248" stroke="#868686" stroke-width="1.00189" stroke-miterlimit="10" stroke-linecap="round"/>
<path d="M23.9973 16.0254C24.8264 16.0254 25.4984 15.3534 25.4984 14.5243C25.4984 13.6953 24.8264 13.0232 23.9973 13.0232C23.1683 13.0232 22.4962 13.6953 22.4962 14.5243C22.4962 15.3534 23.1683 16.0254 23.9973 16.0254Z" fill="#868686"/>
</g>
<rect x="1.49677" y="1.02316" width="36" height="19" rx="1.5" stroke="#CCCCCC"/>
<defs>
<clipPath id="clip0_392_14135">
<rect width="16" height="16" fill="white" transform="translate(15.9968 2.52316)"/>
</clipPath>
</defs>
</svg>
