<svg width="38" height="21" viewBox="0 0 38 21" fill="none" xmlns="http://www.w3.org/2000/svg">
<rect x="1.49677" y="1.02316" width="36.0035" height="19.0035" rx="1.5" fill="#FEF1DB"/>
<path d="M14.1478 5.9249L10.1568 15.1549H10.0268L6.02277 5.9249H7.40077L9.61077 11.3719C9.80143 11.8486 9.9531 12.3989 10.0658 13.0229H10.1178C10.2044 12.4596 10.3561 11.9092 10.5728 11.3719L12.7828 5.9249H14.1478Z" fill="black"/>
<path d="M23.5068 8.5322C23.0188 9.08147 22.7493 9.79068 22.7493 10.5254C22.7493 11.2601 23.0188 11.9694 23.5068 12.5186" stroke="#F37E0D" stroke-width="1.00189" stroke-linecap="round" stroke-linejoin="round"/>
<path d="M26.5246 12.5186C27.0126 11.9694 27.2822 11.2601 27.2822 10.5254C27.2822 9.79068 27.0126 9.08147 26.5246 8.5322" stroke="#F37E0D" stroke-width="1.00189" stroke-linecap="round" stroke-linejoin="round"/>
<path d="M21.9133 6.93918C21.0041 7.91184 20.4984 9.19355 20.4984 10.525C20.4984 11.8564 21.0041 13.1381 21.9133 14.1107" stroke="#F37E0D" stroke-width="1.00189" stroke-linecap="round" stroke-linejoin="round"/>
<path d="M28.1167 14.1107C29.0258 13.1381 29.5316 11.8564 29.5316 10.525C29.5316 9.19355 29.0258 7.91184 28.1167 6.93918" stroke="#F37E0D" stroke-width="1.00189" stroke-linecap="round" stroke-linejoin="round"/>
<path d="M29.8757 15.5253C31.1037 14.1489 31.7823 12.3688 31.7823 10.5243C31.7823 8.67968 31.1037 6.89958 29.8757 5.52316" stroke="#F37E0D" stroke-width="1.00189" stroke-linecap="round" stroke-linejoin="round"/>
<path d="M20.1545 5.52316C18.9266 6.89958 18.2479 8.67968 18.2479 10.5243C18.2479 12.3688 18.9266 14.1489 20.1545 15.5253" stroke="#F37E0D" stroke-width="1.00189" stroke-linecap="round" stroke-linejoin="round"/>
<rect x="1.49677" y="1.02316" width="36.0035" height="19.0035" rx="1.5" stroke="#F69112"/>
</svg>
